<svg width="301" height="300" viewBox="0 0 301 300" fill="none" xmlns="http://www.w3.org/2000/svg">
<g clip-path="url(#clip0_7_105)">
<path d="M-41.8358 -22H314.164V337H-41.8358V-22Z" fill="#222222"/>
<path d="M86.2302 128.107H95.4289V170.685C90.7106 171.582 87.2455 171.94 83.4816 171.94C72.2507 171.94 66.3967 166.863 66.3967 157.127C66.3967 147.748 72.609 141.656 82.2254 141.656C83.7194 141.656 84.8536 141.775 86.2272 142.133L86.2302 128.107ZM86.2302 149.541C85.1554 149.182 84.259 149.064 83.1248 149.064C78.466 149.064 75.7768 151.93 75.7768 156.948C75.7768 161.846 78.3456 164.534 83.0639 164.534C84.1237 164.532 85.182 164.452 86.2302 164.296V149.541ZM110.064 142.315V163.639C110.064 170.987 109.526 174.509 107.93 177.558C106.436 180.485 104.465 182.337 100.403 184.367L91.8616 180.305C95.9244 178.393 97.894 176.722 99.1486 174.152C100.463 171.524 100.882 168.478 100.882 160.473V142.331L110.064 142.315ZM100.865 128.16H110.064V137.612H100.865V128.16ZM115.619 144.405C119.682 142.493 123.546 141.658 127.806 141.658C132.524 141.658 135.631 142.912 137.005 145.362C137.767 146.734 138.02 148.528 138.02 152.352V171.059C133.898 171.656 128.701 172.074 124.879 172.074C117.174 172.074 113.709 169.385 113.709 163.412C113.709 156.96 118.308 153.96 129.599 153.018V150.987C129.599 149.315 128.76 148.701 126.432 148.701C123.028 148.701 119.206 149.657 115.621 151.509V144.4L115.619 144.405ZM130.015 159.04C123.921 159.637 121.935 160.595 121.935 162.982C121.935 164.773 123.071 165.61 125.594 165.61C126.966 165.61 128.222 165.491 130.015 165.193V159.04ZM142.516 143.749C147.95 142.316 152.431 141.661 156.971 141.661C161.689 141.661 165.096 142.735 167.127 144.827C169.038 146.798 169.635 148.948 169.635 153.547V171.586H160.436V153.902C160.436 150.378 159.241 149.064 155.954 149.064C154.699 149.064 153.565 149.182 151.713 149.719V171.58H142.499L142.516 143.749ZM173.196 176.602C176.421 178.274 179.647 179.05 183.051 179.05C189.084 179.05 191.653 176.602 191.653 170.748V170.568C189.861 171.463 188.07 171.823 185.68 171.823C177.6 171.823 172.478 166.507 172.478 158.084C172.478 147.629 180.065 141.717 193.503 141.717C197.446 141.717 201.091 142.135 205.51 143.031L202.361 149.667C199.911 149.19 202.162 149.603 200.313 149.423V150.379L200.432 154.26L200.493 159.279C200.554 160.534 200.554 161.788 200.615 163.041V165.551C200.615 173.435 199.959 177.137 197.987 180.186C195.121 184.668 190.162 186.894 183.112 186.894C179.53 186.894 176.423 186.355 173.197 185.101V176.619L173.196 176.602ZM191.489 149.125H190.534C188.742 149.064 186.652 149.542 185.218 150.439C183.007 151.693 181.873 153.963 181.873 157.189C181.873 161.788 184.16 164.415 188.206 164.415C189.46 164.415 190.492 164.176 191.669 163.817V160.651C191.669 159.576 191.608 158.364 191.608 157.127L191.547 152.885L191.486 149.839V149.123L191.489 149.125ZM219.79 141.539C228.989 141.539 234.603 147.332 234.603 156.712C234.603 166.316 228.749 172.362 219.43 172.362C210.231 172.362 204.556 166.569 204.556 157.25C204.556 147.573 210.41 141.54 219.788 141.54L219.79 141.539ZM219.61 164.955C223.135 164.955 225.226 162.028 225.226 156.951C225.226 151.92 223.196 148.948 219.671 148.948C216.012 148.948 213.936 151.875 213.936 156.951C213.936 162.028 216.027 164.955 219.61 164.955Z" fill="white"/>
</g>
<defs>
<clipPath id="clip0_7_105">
<rect width="300" height="300" fill="white" transform="translate(0.5)"/>
</clipPath>
</defs>
</svg>
