<svg width="300" height="300" viewBox="0 0 300 300" fill="none" xmlns="http://www.w3.org/2000/svg">
<g clip-path="url(#clip0_7_119)">
<path d="M-42.3358 -22H313.664V337H-42.3358V-22Z" fill="#222222"/>
<path d="M161.69 140.228H180.055ZM139.827 140.228H158.192ZM118.402 140.228H136.767ZM96.9757 140.228H114.903ZM75.1125 140.228H93.4776ZM96.9757 120.114H114.903ZM118.402 120.114H136.767ZM139.827 120.114H158.192ZM139.827 100H158.192Z" fill="black"/>
<path d="M161.69 140.228H180.055M139.827 140.228H158.192M118.402 140.228H136.767M96.9757 140.228H114.903M75.1125 140.228H93.4776M96.9757 120.114H114.903M118.402 120.114H136.767M139.827 120.114H158.192M139.827 100H158.192" stroke="#066DA5" stroke-width="16"/>
<path d="M238.649 141.103C238.649 141.103 230.778 133.669 214.599 136.293C212.85 123.612 199.295 116.179 199.295 116.179C199.295 116.179 186.614 131.483 195.797 148.536C193.173 149.848 188.801 151.597 182.242 151.597H61.9947C59.8084 159.905 59.8084 215 120.151 215C163.44 215 195.797 194.886 211.101 158.156C233.839 159.905 238.649 141.103 238.649 141.103Z" fill="#066DA5"/>
</g>
<defs>
<clipPath id="clip0_7_119">
<rect width="300" height="300" fill="white"/>
</clipPath>
</defs>
</svg>
