<svg width="300" height="300" viewBox="0 0 300 300" fill="none" xmlns="http://www.w3.org/2000/svg">
<g clip-path="url(#clip0_7_79)">
<path d="M-42.3358 -22H313.664V337H-42.3358V-22Z" fill="#222222"/>
<path d="M116.864 103.409H136.318V168.318C136.318 174.318 134.97 179.53 132.273 183.955C129.606 188.379 125.894 191.788 121.136 194.182C116.379 196.576 110.848 197.773 104.545 197.773C98.9394 197.773 93.8485 196.788 89.2727 194.818C84.7273 192.818 81.1212 189.788 78.4545 185.727C75.7879 181.636 74.4697 176.5 74.5 170.318H94.0909C94.1515 172.773 94.6515 174.879 95.5909 176.636C96.5606 178.364 97.8788 179.697 99.5455 180.636C101.242 181.545 103.242 182 105.545 182C107.97 182 110.015 181.485 111.682 180.455C113.379 179.394 114.667 177.848 115.545 175.818C116.424 173.788 116.864 171.288 116.864 168.318V103.409ZM203.091 130.182C202.727 126.515 201.167 123.667 198.409 121.636C195.652 119.606 191.909 118.591 187.182 118.591C183.97 118.591 181.258 119.045 179.045 119.955C176.833 120.833 175.136 122.061 173.955 123.636C172.803 125.212 172.227 127 172.227 129C172.167 130.667 172.515 132.121 173.273 133.364C174.061 134.606 175.136 135.682 176.5 136.591C177.864 137.47 179.439 138.242 181.227 138.909C183.015 139.545 184.924 140.091 186.955 140.545L195.318 142.545C199.379 143.455 203.106 144.667 206.5 146.182C209.894 147.697 212.833 149.561 215.318 151.773C217.803 153.985 219.727 156.591 221.091 159.591C222.485 162.591 223.197 166.03 223.227 169.909C223.197 175.606 221.742 180.545 218.864 184.727C216.015 188.879 211.894 192.106 206.5 194.409C201.136 196.682 194.667 197.818 187.091 197.818C179.576 197.818 173.03 196.667 167.455 194.364C161.909 192.061 157.576 188.652 154.455 184.136C151.364 179.591 149.742 173.97 149.591 167.273H168.636C168.848 170.394 169.742 173 171.318 175.091C172.924 177.152 175.061 178.712 177.727 179.773C180.424 180.803 183.47 181.318 186.864 181.318C190.197 181.318 193.091 180.833 195.545 179.864C198.03 178.894 199.955 177.545 201.318 175.818C202.682 174.091 203.364 172.106 203.364 169.864C203.364 167.773 202.742 166.015 201.5 164.591C200.288 163.167 198.5 161.955 196.136 160.955C193.803 159.955 190.939 159.045 187.545 158.227L177.409 155.682C169.561 153.773 163.364 150.788 158.818 146.727C154.273 142.667 152.015 137.197 152.045 130.318C152.015 124.682 153.515 119.758 156.545 115.545C159.606 111.333 163.803 108.045 169.136 105.682C174.47 103.318 180.53 102.136 187.318 102.136C194.227 102.136 200.258 103.318 205.409 105.682C210.591 108.045 214.621 111.333 217.5 115.545C220.379 119.758 221.864 124.636 221.955 130.182H203.091Z" fill="white"/>
</g>
<defs>
<clipPath id="clip0_7_79">
<rect width="300" height="300" fill="white"/>
</clipPath>
</defs>
</svg>
