<svg width="300" height="300" viewBox="0 0 300 300" fill="none" xmlns="http://www.w3.org/2000/svg">
<g clip-path="url(#clip0_7_91)">
<path d="M-42.3358 -22H313.664V337H-42.3358V-22Z" fill="#222222"/>
<g clip-path="url(#clip1_7_91)">
<path d="M177.352 133.514H206.266V138.739H194.796V166.227H189.061V138.739H177.352V133.514Z" fill="white"/>
<path d="M129.799 133.514V138.739H106.622V147.144H125.261V152.369H106.622V161.002H129.799V166.227H100.887V138.739H100.884V133.514H129.799Z" fill="white"/>
<path d="M144.236 133.527H136.731L163.614 166.241H171.141L157.698 149.895L171.12 133.552L163.614 133.564L153.94 145.326L144.236 133.527Z" fill="white"/>
<path d="M151.938 156.895L148.179 152.319L136.709 166.266H144.236L151.938 156.895Z" fill="white"/>
<path fill-rule="evenodd" clip-rule="evenodd" d="M101.088 166.227L74.1688 133.5H67V166.214H72.735V140.493L93.883 166.227H101.088Z" fill="white"/>
<path d="M207.555 166.028C207.135 166.028 206.778 165.885 206.479 165.6C206.18 165.315 206.032 164.97 206.036 164.562C206.032 164.164 206.18 163.823 206.479 163.538C206.778 163.253 207.135 163.111 207.555 163.111C207.959 163.111 208.313 163.253 208.612 163.538C208.915 163.823 209.067 164.164 209.071 164.562C209.067 164.832 208.997 165.079 208.857 165.3C208.713 165.525 208.531 165.701 208.301 165.829C208.076 165.96 207.827 166.028 207.555 166.028Z" fill="white"/>
<path d="M217.344 152.246H219.885V161.832C219.881 162.713 219.687 163.467 219.306 164.101C218.922 164.734 218.389 165.218 217.705 165.559C217.025 165.896 216.229 166.069 215.323 166.069C214.495 166.069 213.753 165.923 213.093 165.638C212.432 165.353 211.907 164.925 211.523 164.363C211.134 163.801 210.943 163.1 210.943 162.26H213.489C213.493 162.627 213.578 162.946 213.741 163.212C213.905 163.478 214.13 163.681 214.418 163.823C214.709 163.966 215.043 164.037 215.42 164.037C215.828 164.037 216.178 163.954 216.462 163.786C216.745 163.621 216.963 163.373 217.115 163.043C217.262 162.717 217.34 162.312 217.344 161.832V152.246Z" fill="white"/>
<path d="M230.342 155.995C230.28 155.414 230.008 154.96 229.534 154.638C229.056 154.312 228.438 154.151 227.68 154.151C227.148 154.151 226.69 154.229 226.309 154.383C225.928 154.541 225.632 154.751 225.43 155.017C225.228 155.283 225.127 155.587 225.119 155.928C225.119 156.213 225.189 156.46 225.325 156.666C225.461 156.876 225.644 157.052 225.881 157.195C226.114 157.341 226.374 157.461 226.658 157.559C226.946 157.656 227.233 157.738 227.521 157.806L228.846 158.125C229.378 158.245 229.895 158.406 230.389 158.612C230.882 158.814 231.329 159.073 231.721 159.384C232.114 159.695 232.425 160.07 232.654 160.509C232.883 160.948 233 161.461 233 162.054C233 162.852 232.79 163.553 232.366 164.161C231.943 164.764 231.333 165.236 230.532 165.578C229.736 165.915 228.772 166.087 227.637 166.087C226.542 166.087 225.586 165.923 224.781 165.593C223.973 165.267 223.343 164.787 222.889 164.157C222.434 163.527 222.189 162.758 222.154 161.855H224.673C224.708 162.327 224.863 162.721 225.127 163.04C225.395 163.354 225.745 163.587 226.173 163.744C226.604 163.898 227.086 163.977 227.618 163.977C228.174 163.977 228.663 163.894 229.087 163.733C229.506 163.572 229.837 163.347 230.074 163.055C230.315 162.766 230.435 162.425 230.439 162.035C230.435 161.679 230.326 161.382 230.117 161.15C229.903 160.918 229.608 160.723 229.23 160.565C228.85 160.408 228.407 160.265 227.902 160.142L226.293 159.744C225.131 159.456 224.21 159.017 223.538 158.428C222.862 157.84 222.527 157.06 222.527 156.081C222.527 155.279 222.753 154.574 223.208 153.971C223.658 153.367 224.276 152.899 225.057 152.565C225.842 152.227 226.728 152.062 227.715 152.062C228.718 152.062 229.596 152.227 230.354 152.565C231.111 152.899 231.706 153.363 232.137 153.956C232.569 154.548 232.794 155.227 232.806 155.995H230.342Z" fill="white"/>
</g>
</g>
<defs>
<clipPath id="clip0_7_91">
<rect width="300" height="300" fill="white"/>
</clipPath>
<clipPath id="clip1_7_91">
<rect width="166" height="33" fill="white" transform="translate(67 133.5)"/>
</clipPath>
</defs>
</svg>
