<svg width="301" height="300" viewBox="0 0 301 300" fill="none" xmlns="http://www.w3.org/2000/svg">
<g clip-path="url(#clip0_7_73)">
<path d="M-41.8358 -22H314.164V337H-41.8358V-22Z" fill="#222222"/>
<path d="M221.88 143.032C221.466 143.032 221.063 143.118 220.707 143.319L209.436 149.828C208.707 150.248 208.264 151.042 208.264 151.886V164.88C208.264 165.724 208.707 166.516 209.436 166.938L212.38 168.634C213.81 169.339 214.337 169.328 214.988 169.328C217.105 169.328 218.314 168.043 218.314 165.81V152.99C218.314 152.809 218.157 152.679 217.979 152.679H216.567C216.386 152.679 216.232 152.812 216.232 152.99V165.817C216.232 166.806 215.201 167.802 213.528 166.965L210.469 165.171C210.361 165.112 210.277 165.004 210.277 164.884V151.889C210.277 151.766 210.36 151.641 210.469 151.579L221.716 145.093C221.821 145.033 221.946 145.033 222.051 145.093L233.298 151.579C233.405 151.643 233.489 151.762 233.489 151.889V164.884C233.489 165.008 233.427 165.135 233.322 165.195L222.051 171.68C221.951 171.738 221.818 171.738 221.716 171.68L218.82 169.957C218.734 169.907 218.617 169.911 218.533 169.957C217.734 170.41 217.584 170.463 216.835 170.723C216.65 170.787 216.369 170.887 216.93 171.202L220.711 173.43C221.071 173.638 221.472 173.741 221.884 173.741C222.301 173.741 222.696 173.641 223.057 173.43L234.327 166.945C235.057 166.52 235.5 165.731 235.5 164.887V151.893C235.5 151.049 235.057 150.256 234.327 149.835L223.057 143.326C222.703 143.125 222.298 143.039 221.884 143.039L221.88 143.032ZM224.895 152.317C221.685 152.317 219.774 153.683 219.774 155.954C219.774 158.415 221.671 159.095 224.752 159.4C228.437 159.761 228.724 160.302 228.724 161.027C228.724 162.285 227.721 162.822 225.35 162.822C222.371 162.822 221.716 162.078 221.497 160.594C221.471 160.435 221.349 160.307 221.186 160.307H219.723C219.635 160.309 219.551 160.344 219.488 160.407C219.426 160.469 219.39 160.553 219.388 160.641C219.388 162.538 220.42 164.781 225.347 164.781C228.913 164.781 230.97 163.384 230.97 160.928C230.97 158.501 229.308 157.844 225.849 157.386C222.357 156.921 222.02 156.698 222.02 155.879C222.02 155.203 222.303 154.299 224.892 154.299C227.204 154.299 228.059 154.798 228.41 156.357C228.44 156.503 228.569 156.623 228.721 156.623H230.184C230.274 156.623 230.361 156.568 230.423 156.503C230.485 156.435 230.528 156.357 230.519 156.264C230.293 153.579 228.502 152.316 224.896 152.316L224.895 152.317Z" fill="#8CFF00"/>
<path d="M155.619 125.998C155.493 125.998 155.369 126.031 155.26 126.094C155.151 126.157 155.061 126.248 154.998 126.357C154.935 126.466 154.901 126.59 154.901 126.716V145.022C154.901 145.202 154.817 145.363 154.661 145.453C154.585 145.497 154.498 145.521 154.41 145.521C154.322 145.521 154.235 145.497 154.159 145.453L151.168 143.73C150.949 143.604 150.702 143.537 150.45 143.537C150.198 143.537 149.95 143.604 149.732 143.73L137.791 150.622C137.345 150.879 137.073 151.375 137.073 151.89V165.673C137.072 165.925 137.139 166.173 137.265 166.392C137.391 166.61 137.572 166.791 137.791 166.917L149.732 173.809C149.95 173.936 150.197 174.002 150.45 174.002C150.702 174.002 150.949 173.936 151.168 173.809L163.108 166.917C163.327 166.791 163.508 166.61 163.634 166.392C163.761 166.173 163.827 165.925 163.826 165.673V131.31C163.826 130.788 163.541 130.297 163.085 130.042L155.978 126.069C155.866 126.007 155.742 125.997 155.619 125.998ZM78.8044 143.203C78.5766 143.213 78.3628 143.252 78.1582 143.371L66.2177 150.262C65.999 150.388 65.8174 150.569 65.6913 150.788C65.5653 151.006 65.4993 151.254 65.5 151.507L65.5243 170.005C65.5243 170.262 65.6573 170.501 65.8835 170.627C66.1053 170.76 66.3804 170.76 66.6012 170.627L73.6843 166.559C74.1333 166.292 74.4259 165.828 74.4259 165.315V156.676C74.4259 156.16 74.697 155.688 75.1443 155.432L78.1596 153.685C78.3774 153.558 78.6252 153.492 78.8773 153.494C79.1295 153.492 79.3774 153.558 79.5953 153.685L82.6092 155.431C83.0559 155.687 83.3269 156.16 83.3269 156.675V165.313C83.3269 165.827 83.6263 166.294 84.0686 166.557L91.1517 170.625C91.3745 170.758 91.6489 170.758 91.8694 170.625C92.0889 170.499 92.2286 170.261 92.2286 170.003L92.2526 151.506C92.254 151.254 92.1883 151.005 92.0621 150.787C91.936 150.568 91.754 150.387 91.5348 150.262L79.5943 143.371C79.3925 143.252 79.1776 143.212 78.9481 143.203H78.8051L78.8044 143.203ZM186.105 143.371C185.853 143.37 185.605 143.436 185.387 143.563L173.446 150.454C173 150.712 172.727 151.183 172.727 151.698V165.482C172.727 166 173.019 166.469 173.469 166.725L185.314 173.477C185.751 173.726 186.285 173.745 186.726 173.5L193.905 169.504C194.133 169.378 194.287 169.141 194.287 168.882C194.288 168.623 194.153 168.389 193.928 168.26L181.915 161.368C181.69 161.24 181.533 160.98 181.533 160.722V156.412C181.533 156.155 181.692 155.918 181.915 155.79L185.648 153.636C185.87 153.508 186.143 153.508 186.366 153.636L190.101 155.79C190.21 155.853 190.301 155.943 190.364 156.053C190.427 156.162 190.46 156.286 190.46 156.412V159.81C190.46 159.936 190.493 160.06 190.556 160.169C190.619 160.279 190.709 160.369 190.819 160.432C191.043 160.561 191.314 160.562 191.537 160.432L198.692 156.269C199.136 156.011 199.41 155.538 199.41 155.025V151.699C199.41 151.447 199.344 151.199 199.218 150.981C199.092 150.763 198.91 150.581 198.692 150.455L186.823 143.563C186.605 143.437 186.357 143.371 186.105 143.372L186.105 143.371ZM150.402 153.661C150.468 153.661 150.534 153.677 150.593 153.709L154.685 156.078C154.796 156.142 154.876 156.261 154.876 156.389V161.127C154.876 161.255 154.797 161.374 154.685 161.438L150.593 163.807C150.482 163.87 150.346 163.87 150.234 163.807L146.142 161.438C146.031 161.373 145.951 161.255 145.951 161.127V156.388C145.951 156.26 146.031 156.142 146.142 156.077L150.234 153.708C150.29 153.676 150.339 153.661 150.402 153.661Z" fill="#404137"/>
<path d="M114.675 143.299C114.423 143.298 114.175 143.364 113.957 143.49L102.016 150.358C101.57 150.616 101.298 151.112 101.298 151.626V165.41C101.298 165.662 101.364 165.91 101.49 166.128C101.616 166.347 101.797 166.528 102.016 166.654L113.957 173.545C114.175 173.672 114.423 173.739 114.675 173.739C114.927 173.739 115.174 173.672 115.393 173.545L127.333 166.654C127.552 166.528 127.733 166.346 127.86 166.128C127.986 165.91 128.052 165.662 128.051 165.409V151.626C128.051 151.111 127.78 150.615 127.333 150.358L115.392 143.49C115.174 143.363 114.926 143.297 114.674 143.298L114.675 143.299ZM186.081 155.599C186.034 155.599 185.981 155.599 185.938 155.622L183.641 156.962C183.598 156.986 183.562 157.021 183.537 157.063C183.511 157.105 183.498 157.153 183.497 157.202V159.834C183.497 159.933 183.554 160.024 183.641 160.073L185.938 161.389C185.977 161.414 186.023 161.427 186.069 161.427C186.116 161.427 186.161 161.414 186.2 161.389L188.498 160.073C188.583 160.025 188.641 159.933 188.641 159.834V157.202C188.641 157.102 188.583 157.012 188.498 156.962L186.2 155.622C186.158 155.596 186.129 155.598 186.081 155.598L186.081 155.599Z" fill="#8CFF00"/>
</g>
<defs>
<clipPath id="clip0_7_73">
<rect width="300" height="300" fill="white" transform="translate(0.5)"/>
</clipPath>
</defs>
</svg>
