<svg width="300" height="300" viewBox="0 0 300 300" fill="none" xmlns="http://www.w3.org/2000/svg">
<g clip-path="url(#clip0_7_76)">
<path d="M-42.3358 -22H313.664V337H-42.3358V-22Z" fill="#222222"/>
<path d="M149.47 76.3862C112.023 76.3862 114.36 92.6801 114.36 92.6801L114.406 109.561H150.138V114.626H100.205C100.205 114.626 76.25 111.897 76.25 149.813C76.25 187.719 97.1627 186.378 97.1627 186.378H109.645V168.784C109.645 168.784 108.972 147.801 130.226 147.801H165.663C165.663 147.801 185.575 148.125 185.575 128.491V96.0286C185.575 96.0286 188.599 76.3862 149.47 76.3862ZM129.765 87.736C133.319 87.736 136.195 90.622 136.195 94.1878C136.195 97.7537 133.319 100.64 129.765 100.64C128.92 100.641 128.083 100.475 127.303 100.151C126.522 99.8273 125.813 99.3521 125.215 98.7527C124.618 98.1533 124.144 97.4416 123.822 96.6583C123.499 95.875 123.334 95.0354 123.335 94.1878C123.335 90.622 126.211 87.736 129.765 87.736Z" fill="url(#paint0_linear_7_76)"/>
<path d="M150.53 223.614C187.977 223.614 185.64 207.32 185.64 207.32L185.594 190.439H149.862V185.374H199.79C199.79 185.374 223.75 188.103 223.75 150.192C223.75 112.281 202.837 113.627 202.837 113.627H190.355V131.216C190.355 131.216 191.028 152.199 169.774 152.199H134.337C134.337 152.199 114.425 151.875 114.425 171.509V203.971C114.425 203.971 111.401 223.614 150.53 223.614ZM170.235 212.264C169.39 212.265 168.554 212.099 167.773 211.775C166.992 211.452 166.283 210.976 165.686 210.377C165.088 209.778 164.615 209.066 164.292 208.283C163.969 207.499 163.804 206.66 163.805 205.812C163.805 202.251 166.681 199.365 170.235 199.365C173.789 199.365 176.665 202.246 176.665 205.812C176.665 209.383 173.789 212.264 170.235 212.264Z" fill="url(#paint1_linear_7_76)"/>
</g>
<defs>
<linearGradient id="paint0_linear_7_76" x1="90.4238" y1="89.2529" x2="163.606" y2="162.432" gradientUnits="userSpaceOnUse">
<stop stop-color="#387EB8"/>
<stop offset="1" stop-color="#366994"/>
</linearGradient>
<linearGradient id="paint1_linear_7_76" x1="135.291" y1="135.965" x2="213.877" y2="210.999" gradientUnits="userSpaceOnUse">
<stop stop-color="#FFE052"/>
<stop offset="1" stop-color="#FFC331"/>
</linearGradient>
<clipPath id="clip0_7_76">
<rect width="300" height="300" fill="white"/>
</clipPath>
</defs>
</svg>
