<svg width="300" height="300" viewBox="0 0 300 300" fill="none" xmlns="http://www.w3.org/2000/svg">
<g clip-path="url(#clip0_6_23)">
<path d="M-42.3358 -22H313.664V337H-42.3358V-22Z" fill="#222222"/>
<path d="M150.002 164.203C157.921 164.203 164.341 157.783 164.341 149.865C164.341 141.946 157.921 135.526 150.002 135.526C142.084 135.526 135.664 141.946 135.664 149.865C135.664 157.783 142.084 164.203 150.002 164.203Z" fill="#00D8FF"/>
<path d="M150.002 120.715C169.249 120.715 187.132 123.477 200.612 128.116C216.855 133.707 226.844 142.184 226.844 149.86C226.844 157.858 216.258 166.866 198.817 172.642C185.63 177.011 168.273 179.294 150.002 179.294C131.267 179.294 113.532 177.153 100.193 172.594C83.32 166.828 73.1563 157.707 73.1563 149.86C73.1563 142.245 82.6945 133.835 98.71 128.253C112.243 123.539 130.566 120.715 150.002 120.715Z" stroke="#00D8FF" stroke-width="7" stroke-miterlimit="10"/>
<path d="M124.629 135.375C134.243 118.701 145.572 104.59 156.328 95.2318C169.287 83.9546 181.621 79.5385 188.269 83.3718C195.196 87.3662 197.713 101.036 194.002 119.037C191.197 132.646 184.507 148.817 175.376 164.648C166.018 180.877 155.3 195.172 144.691 204.45C131.267 216.187 118.284 220.432 111.489 216.514C104.894 212.709 102.373 200.247 105.533 183.583C108.206 169.491 114.915 152.21 124.629 135.375Z" stroke="#00D8FF" stroke-width="7" stroke-miterlimit="10"/>
<path d="M124.652 164.681C115.01 148.021 108.443 131.162 105.704 117.17C102.406 100.311 104.737 87.4183 111.38 83.5755C118.303 79.5669 131.4 84.2152 145.141 96.4164C155.532 105.642 166.198 119.516 175.352 135.332C184.739 151.547 191.775 167.97 194.509 181.791C197.973 199.285 195.168 212.652 188.378 216.58C181.787 220.395 169.733 216.358 156.873 205.294C146.013 195.945 134.39 181.502 124.652 164.681Z" stroke="#00D8FF" stroke-width="7" stroke-miterlimit="10"/>
</g>
<defs>
<clipPath id="clip0_6_23">
<rect width="300" height="300" fill="white"/>
</clipPath>
</defs>
</svg>
