<svg width="301" height="300" viewBox="0 0 301 300" fill="none" xmlns="http://www.w3.org/2000/svg">
<g clip-path="url(#clip0_7_87)">
<path d="M-41.8358 -22H314.164V337H-41.8358V-22Z" fill="#222222"/>
<path d="M70.0455 127.136V110.909H146.5V127.136H118V204H98.5455V127.136H70.0455ZM209.591 137.682C209.227 134.015 207.667 131.167 204.909 129.136C202.152 127.106 198.409 126.091 193.682 126.091C190.47 126.091 187.758 126.545 185.545 127.455C183.333 128.333 181.636 129.561 180.455 131.136C179.303 132.712 178.727 134.5 178.727 136.5C178.667 138.167 179.015 139.621 179.773 140.864C180.561 142.106 181.636 143.182 183 144.091C184.364 144.97 185.939 145.742 187.727 146.409C189.515 147.045 191.424 147.591 193.455 148.045L201.818 150.045C205.879 150.955 209.606 152.167 213 153.682C216.394 155.197 219.333 157.061 221.818 159.273C224.303 161.485 226.227 164.091 227.591 167.091C228.985 170.091 229.697 173.53 229.727 177.409C229.697 183.106 228.242 188.045 225.364 192.227C222.515 196.379 218.394 199.606 213 201.909C207.636 204.182 201.167 205.318 193.591 205.318C186.076 205.318 179.53 204.167 173.955 201.864C168.409 199.561 164.076 196.152 160.955 191.636C157.864 187.091 156.242 181.47 156.091 174.773H175.136C175.348 177.894 176.242 180.5 177.818 182.591C179.424 184.652 181.561 186.212 184.227 187.273C186.924 188.303 189.97 188.818 193.364 188.818C196.697 188.818 199.591 188.333 202.045 187.364C204.53 186.394 206.455 185.045 207.818 183.318C209.182 181.591 209.864 179.606 209.864 177.364C209.864 175.273 209.242 173.515 208 172.091C206.788 170.667 205 169.455 202.636 168.455C200.303 167.455 197.439 166.545 194.045 165.727L183.909 163.182C176.061 161.273 169.864 158.288 165.318 154.227C160.773 150.167 158.515 144.697 158.545 137.818C158.515 132.182 160.015 127.258 163.045 123.045C166.106 118.833 170.303 115.545 175.636 113.182C180.97 110.818 187.03 109.636 193.818 109.636C200.727 109.636 206.758 110.818 211.909 113.182C217.091 115.545 221.121 118.833 224 123.045C226.879 127.258 228.364 132.136 228.455 137.682H209.591Z" fill="white"/>
</g>
<defs>
<clipPath id="clip0_7_87">
<rect width="300" height="300" fill="white" transform="translate(0.5)"/>
</clipPath>
</defs>
</svg>
